<svg width="45" height="45" viewBox="0 0 47 47">
	<g transform="matrix(1.05 0 0 1.05 23.46 23.54)">
		<circle style="stroke: #66c05d; stroke-width: 2; fill: none;" r="21.5" />
	</g>
	<g transform="matrix(1 0 0 1 23.5 23.5)">
		<path style="fill: #66c05d;" transform=" translate(-10, -10)" d="M 14.9993 0.00416134 L 12.4058 0 C 9.49206 0 7.60908 1.9319 7.60908 4.92203 L 7.60908 7.19141 L 5.0014 7.19141 C 4.77607 7.19141 4.5936 7.37409 4.5936 7.59943 L 4.5936 10.8875 C 4.5936 11.1128 4.77628 11.2953 5.0014 11.2953 L 7.60908 11.2953 L 7.60908 19.5922 C 7.60908 19.8175 7.79155 20 8.01688 20 L 11.4192 20 C 11.6445 20 11.827 19.8173 11.827 19.5922 L 11.827 11.2953 L 14.8759 11.2953 C 15.1013 11.2953 15.2837 11.1128 15.2837 10.8875 L 15.285 7.59943 C 15.285 7.49123 15.2419 7.38762 15.1656 7.31105 C 15.0892 7.23448 14.9852 7.19141 14.877 7.19141 L 11.827 7.19141 L 11.827 5.26763 C 11.827 4.34298 12.0473 3.87358 13.2518 3.87358 L 14.9989 3.87295 C 15.224 3.87295 15.4065 3.69027 15.4065 3.46514 L 15.4065 0.411972 C 15.4065 0.187052 15.2242 0.00457747 14.9993 0.00416134 Z" />
	</g>
</svg>