<svg width="45" height="45" viewBox="0 0 47 47">
	<g transform="matrix(1.05 0 0 1.05 23.55 23.45)">
		<circle style="stroke: #66c05d; stroke-width: 2; fill: none;" r="21.5" />
	</g>
	<g transform="matrix(1 0 0 1 23.55 23.55)">
		<path style="fill: #66c05d;"  transform=" translate(-11, -7.5)" d="M 17.4309 0 L 4.56912 0 C 2.04566 0 0 1.97106 0 4.40248 L 0 10.5975 C 0 13.0289 2.04566 15 4.56912 15 L 17.4309 15 C 19.9543 15 22 13.0289 22 10.5975 L 22 4.40248 C 22 1.97106 19.9543 0 17.4309 0 Z M 14.3408 7.80141 L 8.32495 10.566 C 8.16465 10.6396 7.97949 10.527 7.97949 10.3559 L 7.97949 4.654 C 7.97949 4.48047 8.16952 4.368 8.33016 4.44644 L 14.346 7.3838 C 14.5249 7.47112 14.5218 7.71828 14.3408 7.80141 Z" />
	</g>
</svg>