<svg width="45" height="45" viewBox="0 0 47 47">
	<g transform="matrix(1.05 0 0 1.05 23.46 23.54)">
		<circle style="stroke: #66c05d; stroke-width: 2; fill: none;" r="21.5" />
	</g>
	<g transform="matrix(1 0 0 1 23.5 23.5)">
	<g transform="matrix(1 0 0 1 0 0)">
		<path style="fill: #66c05d;" transform=" translate(-11, -11)" d="M 15.125 0 L 6.875 0 C 3.07863 0 0 3.07863 0 6.875 L 0 15.125 C 0 18.9214 3.07863 22 6.875 22 L 15.125 22 C 18.9214 22 22 18.9214 22 15.125 L 22 6.875 C 22 3.07863 18.9214 0 15.125 0 Z M 19.9375 15.125 C 19.9375 17.7787 17.7787 19.9375 15.125 19.9375 L 6.875 19.9375 C 4.22125 19.9375 2.0625 17.7787 2.0625 15.125 L 2.0625 6.875 C 2.0625 4.22125 4.22125 2.0625 6.875 2.0625 L 15.125 2.0625 C 17.7787 2.0625 19.9375 4.22125 19.9375 6.875 L 19.9375 15.125 Z" />
	</g>
	<g transform="matrix(1 0 0 1 0 0)">
		<path style="fill: #66c05d;" transform=" translate(-11, -11)" d="M 11 5.5 C 7.96262 5.5 5.5 7.96262 5.5 11 C 5.5 14.0374 7.96262 16.5 11 16.5 C 14.0374 16.5 16.5 14.0374 16.5 11 C 16.5 7.96262 14.0374 5.5 11 5.5 Z M 11 14.4375 C 9.10525 14.4375 7.5625 12.8948 7.5625 11 C 7.5625 9.10388 9.10525 7.5625 11 7.5625 C 12.8948 7.5625 14.4375 9.10388 14.4375 11 C 14.4375 12.8948 12.8948 14.4375 11 14.4375 Z" />
	</g>
	<g transform="matrix(1 0 0 1 5.91 -5.91)">
		<path style="fill: #66c05d;" transform=" translate(-16.91, -5.09)" d="M 16.9125 5.82042 C 17.3173 5.82042 17.6454 5.49231 17.6454 5.08755 C 17.6454 4.68279 17.3173 4.35468 16.9125 4.35468 C 16.5077 4.35468 16.1796 4.68279 16.1796 5.08755 C 16.1796 5.49231 16.5077 5.82042 16.9125 5.82042 Z" />
	</g>
	</g>
</svg>